<svg xmlns="http://www.w3.org/2000/svg" version="1.1" xmlns:xlink="http://www.w3.org/1999/xlink" xmlns:svgjs="http://svgjs.com/svgjs" width="512" height="512" x="0" y="0" viewBox="0 0 64 64" style="enable-background:new 0 0 512 512" xml:space="preserve" class=""><g><path fill="#F2C351" d="M56.006 27 62 21 44.007 2l-24.78 25" data-original="#f2c351"></path><path fill="#F9D18B" d="m36.91 27.68 13.376-13.377 1.415 1.415-13.377 13.376zM47.288 23.304l5.999-6L54.7 18.72l-5.999 5.999z" data-original="#f9d18b"></path><path fill="#C16B3F" d="m29.05 21.293-2.828 2.828a.999.999 0 0 0 0 1.414l4.242 4.242a.999.999 0 0 0 1.414 0l2.828-2.828a.999.999 0 0 0 0-1.414l-1.414-1.414-1.414 1.414.707.707-1.414 1.414-2.828-2.828 1.414-1.414.707.707 1.414-1.414-1.414-1.414a.999.999 0 0 0-1.414 0z" data-original="#c16b3f"></path><g fill="#C16B3F"><path d="m43.899 9.272 1.414-1.415-1.415-1.414-4.243 4.243L41.07 12.1l1.414-1.413 4.243 4.242 1.415-1.415zM37.535 18.878h-1.441l.268-.804a1 1 0 0 0-.241-1.023l-1.414-1.415-1.415 1.414.978.978-.708 2.121-1.684-1.684-1.415 1.415 5.657 5.657 1.415-1.415-2.392-2.392.284-.851h1.693l1.828 1.829 1.415-1.414-2.121-2.122a.994.994 0 0 0-.707-.294zM41.07 17.757l-.707-.707 2.121-2.121-1.415-1.415-2.121 2.121-.706-.707 2.121-2.121-1.415-1.415-2.828 2.829a1.002 1.002 0 0 0 0 1.415l4.242 4.243a.996.996 0 0 0 .707.292.997.997 0 0 0 .708-.292l2.829-2.829-1.415-1.415z" fill="#C16B3F" data-original="#c16b3f"></path></g><path fill="#F7D881" d="M20 53h42V27H20c0 1.011-.596 1.889-1.476 2.388a3.001 3.001 0 0 0 .678 5.505c.457.125.798.503.798.977v.26c0 .474-.341.851-.798.977a3.001 3.001 0 0 0 0 5.786c.457.125.798.503.798.977v.26c0 .474-.341.851-.798.977a3.001 3.001 0 0 0-.678 5.505C19.404 51.111 20 51.989 20 53z" data-original="#f7d881"></path><path fill="#C66B60" d="m30.03 53-9 9c-.715-.715-.915-1.757-.645-2.732a3.002 3.002 0 0 0-4.373-3.413c-.412.234-.92.208-1.255-.127l-.184-.184c-.335-.335-.361-.843-.127-1.255.228-.4.356-.842.384-1.289" data-original="#c66b60"></path><path fill="#E47C6E" d="M2 53c0-1.011.596-1.889 1.476-2.388a3.001 3.001 0 0 0-.678-5.505C2.341 44.982 2 44.604 2 44.13v-.26c0-.474.341-.851.798-.977a3.001 3.001 0 0 0 0-5.786C2.341 36.982 2 36.604 2 36.13v-.26c0-.474.341-.851.798-.977a3.001 3.001 0 0 0 .678-5.505C2.596 28.889 2 28.011 2 27h18c0 1.011-.596 1.889-1.476 2.388a3.001 3.001 0 0 0 .678 5.505c.457.125.798.503.798.977v.26c0 .474-.341.851-.798.977a3.001 3.001 0 0 0 0 5.786c.457.125.798.503.798.977v.26c0 .474-.341.851-.798.977a3.001 3.001 0 0 0-.678 5.505C19.404 51.111 20 51.989 20 53z" data-original="#e47c6e"></path><path fill="#C66B60" d="M7.999 31h5.999v2H7.999zM7.999 35h5.999v2H7.999zM7.999 39h5.999v2H7.999zM7.999 43h5.999v2H7.999zM7.999 47h5.999v2H7.999z" data-original="#c66b60"></path><g fill="#C16B3F"><path d="M22.999 31.999h2v6h1.999v-6h2V30h-5.999zM58.999 30H53v1.999h2v6h1.999v-6h2zM29.999 30h1.999v8h-1.999zM37.998 30h-3.999a1 1 0 0 0-1 1v6a1 1 0 0 0 1 1h3.999a1 1 0 0 0 1-1v-2h-2v1h-1.999v-4h1.999v1h2v-2a1 1 0 0 0-1-1zM43.998 31.381l-2 1V30h-1.999v8h1.999v-3.382l.803-.401 1.198 1.198V38h1.999v-3a.999.999 0 0 0-.292-.708l-1.019-1.019.758-.379a1 1 0 0 0 .553-.894v-2h-2zM46.999 31v6a1 1 0 0 0 1 1h3.999v-2h-2.999v-1h2.999v-2h-2.999v-1h2.999v-2h-3.999a1 1 0 0 0-1 1z" fill="#C16B3F" data-original="#c16b3f"></path></g><path fill="#F2C351" d="M22.999 40h35.999v2H22.999zM44.999 44h13.999v2H44.999z" data-original="#f2c351"></path><path fill="#C16B3F" d="M24 45h16v4H24z" data-original="#c16b3f"></path><path fill="#E39854" d="M24 45v4h10.708a10.205 10.205 0 0 0 2.913-4z" data-original="#e39854"></path></g></svg>